<?xml version="1.0" encoding="utf-8"?>
<!-- Generator: Adobe Illustrator 25.0.0, SVG Export Plug-In . SVG Version: 6.00 Build 0)  -->
<svg version="1.1" id="Layer_1" xmlns="http://www.w3.org/2000/svg" xmlns:xlink="http://www.w3.org/1999/xlink" x="0px" y="0px"
	 viewBox="0 0 12 15" style="enable-background:new 0 0 12 15;" xml:space="preserve">
<path d="M0.7,0.2C0.5,0.3,0.4,0.4,0.3,0.6C0.1,1.1,0.2,1.7,0.6,2c2.3,1.7,4.6,3.2,6.9,4.8C7.8,7,8.1,7.2,8.4,7.4
	c-2.6,1.9-5.2,3.7-7.7,5.6C0,13.6,0.3,15.1,1,15c2.3-0.4,2.7-1.1,7.1-3.4c0.4-0.2,2-1.3,2.4-1.7c0.3-0.3,0.6-0.6,0.9-1
	c0.4-0.6,0.5-1.5,0.1-2.2c-0.2-0.5-1.4-1.3-1.7-1.6C8.4,4,6.8,3,6,2.6C4.3,1.6,3,1,1.3,0C1.1-0.1,0.9,0,0.7,0.2z"/>
</svg>
